<svg version="1.0" xmlns="http://www.w3.org/2000/svg" width="1333.333" height="1333.333" viewBox="0 0 1000 1000"><path d="M126 2.5C87.3 9.1 53.3 29.7 30.2 60.6 16.8 78.4 7.9 98.2 2.7 121.4L.5 131.5v368c0 352.1.1 368.4 1.8 377 11.1 54.7 48.8 98 100.1 115C116 996 126 998 141.5 999c17.1 1.2 699.9 1.2 717 0 15.5-1 25.5-3 39.1-7.5 51.3-17 89-60.3 100.1-115 1.7-8.6 1.8-24.9 1.8-377v-368l-2.2-10.1c-5.2-23.2-14.1-43-27.5-60.8-21.6-28.9-52-48.2-89.8-57.3-7.1-1.7-25.4-1.8-377-1.9-297.7-.2-371 0-377 1.1zm387.7 199.1c4.2 2.1 6.4 3.9 7.8 6.6l1.9 3.7-2.2 7.8c-1.3 4.3-4.1 12.7-6.3 18.6-2.1 6-3.9 11.2-3.9 11.7s.9 1.2 2 1.5c4.2 1.3 6.5 10.7 3.9 15.8-.6 1.2-2.2 3.2-3.6 4.3l-2.6 2.2 1.2 8.3c1.9 12.9 1.9 12.9 5.5 12.9 4.9 0 21.1 2.8 31.9 5.5 26.3 6.6 53.5 20.1 75.4 37.1 4.5 3.5 8.4 6.4 8.8 6.4.4 0 4.4-2.5 8.9-5.6l8.3-5.7-.5-4.7c-.4-4.4-.1-5.1 3.1-8.6 3.3-3.6 3.9-3.9 9-3.9 5.4 0 5.5-.1 6.7-3.5 3.3-9.3 13.9-29.8 16.6-31.9 3.6-2.9 9.8-2.5 16.9.9 12.2 5.9 20.7 22.5 15.7 30.6-2.1 3.2-12.4 9-27.7 15.5-4.4 1.8-8.1 3.4-8.3 3.5-.1.1.2 1.3.8 2.8 1.3 3.6-.7 8.3-5.1 12-2.9 2.5-3.9 2.8-7.9 2.3l-4.5-.5-5.5 8c-3 4.4-5.7 8.4-5.8 8.9-.2.6 2.3 4.4 5.6 8.7 23 29.8 36.6 62.2 41.9 100.2l1.8 12.5 8 1.2c4.4.7 9.2 1.4 10.8 1.7 1.8.4 2.7.1 2.7-.8 0-2.5 4.8-5.8 9.3-6.3 5.1-.6 9.6 1.3 11.6 5l1.3 2.4 11.6-4.4c6.4-2.4 14.9-5.2 19-6.3 6.7-1.8 7.7-1.8 10.3-.5 3.4 1.8 8.2 9.8 10.5 17.5 1.3 4.5 1.4 6.6.6 11.3-1.5 8-5.4 14.5-10 16.4-3.5 1.4-4.1 1.3-17.7-3.1-7.7-2.6-16.1-5.5-18.7-6.6-4.7-1.9-4.7-1.9-5.3.1-.9 2.9-6.3 5.9-10.5 5.9-4.1 0-9.6-3-10.5-5.9-.6-2.1.1-2.1-15 .3l-6.9 1.2-1.7 12c-5.3 37.4-19.1 70.7-41.7 100.2l-6.3 8.4 5.3 8c2.9 4.5 5.6 8.5 5.9 9 .3.5 1.7.4 3.3-.2 3.3-1.2 8 .5 11.6 4.5 2 2.1 2.5 3.7 2.5 7.9v5.2l10 4.2c13.8 5.9 23.5 11.3 25.8 14.4 4.2 5.6 1.3 16.2-6.6 24.2-5.7 5.6-11.5 8.6-18.1 9.3-4.2.4-5.6.1-7.9-1.7-2.9-2.3-9.2-14.1-14.7-27.5-1.8-4.4-3.4-8.1-3.5-8.3-.1-.1-1.4.3-2.8.9-3.3 1.5-7.3 0-11.3-4.2-2.5-2.6-2.9-3.9-2.9-8.4v-5.4l-8-5.5c-4.4-3.1-8.3-5.6-8.8-5.6-.4 0-3.8 2.4-7.5 5.4-17 13.7-41.8 27.2-62.4 34-12 4-31.4 8.2-42.5 9.2-4 .4-7.3.9-7.3 1.2 0 .2-.7 5-1.6 10.4l-1.6 10 3.2 2.7c3.2 2.7 4.8 7.3 4.2 12.3-.3 2.7-3.8 7.2-6.1 7.9-1 .4 0 4.2 3.7 14.4 6.9 19.4 7.9 24.2 5.8 28.3-3.5 6.8-16.1 11.4-26.8 9.8-7.2-1.1-15-5.5-17.3-9.8l-1.9-3.7 2.2-7.8c1.3-4.3 4.1-12.7 6.3-18.6 2.1-6 3.9-11.2 3.9-11.7s-.9-1.2-2-1.5c-4.2-1.3-6.5-10.7-3.9-15.8.6-1.2 2.2-3.2 3.6-4.3l2.6-2.2-1.2-8.3c-1.9-12.9-1.9-12.9-5.5-12.9-4.9 0-21.1-2.8-31.9-5.5-26.3-6.6-53.5-20.1-75.4-37.1-4.5-3.5-8.4-6.4-8.8-6.4-.4 0-4.4 2.5-8.9 5.6l-8.3 5.7.5 4.7c.4 4.4.1 5.1-3.1 8.6-3.3 3.6-3.9 3.9-9 3.9-5.4 0-5.5.1-6.7 3.5-.7 1.9-4 9.4-7.4 16.5-9 18.8-12.9 21.4-24.3 16.1-12.1-5.7-21.8-22-18.2-30.8 1.4-3.5 9.6-8.4 25.4-15.4 6.1-2.6 11.1-4.9 11.3-5 .1-.1-.2-1.3-.8-2.8-1.3-3.6.7-8.3 5.1-12 2.9-2.5 3.9-2.8 7.9-2.3l4.5.5 5-7.5c2.8-4.2 5.1-7.9 5.3-8.4.2-.4-2.7-4.6-6.3-9.3-22.3-28.9-36.1-62-41.1-98.6-1-6.9-1.9-12.7-2.1-12.9-.2-.3-5-1.2-10.8-2.1-8.1-1.3-10.5-1.4-10.5-.4 0 .7-1.4 2.4-3.1 3.8-5.3 4.5-16.5 2.5-18.3-3.2-.6-1.8-1.4-1.6-13.4 2.9-7 2.6-15.7 5.5-19.4 6.5-6.5 1.5-6.9 1.5-10-.3-2.2-1.2-4.3-3.9-6.3-7.8-2.6-5.3-3-7-3-14.6 0-7.5.4-9.2 3-14.4 4.2-8.1 7.5-9.8 15.5-7.9 3.3.7 11.9 3.6 19.2 6.2l13.3 4.9 1.7-2.6c2.2-3.3 5.5-5 9.8-5.1 4.2 0 9.6 3 10.5 5.9.7 2.3-.4 2.3 15-.2l6.9-1.2 1.8-12.4c5.1-36.4 18.3-68.4 40.3-98.1l7.6-10.2-1.7-2.6c-.9-1.5-3.7-5.5-6.1-8.9-4.1-5.9-4.5-6.2-6.9-5.1-2.2 1-3.3.8-6.9-1.1-5.3-2.8-8-7.7-7.2-12.8.6-3.3.4-3.5-4.1-5.5-11.6-5-25.9-12.1-28.8-14.3-2.5-1.9-3.4-3.5-4-7-2.2-14.9 22.6-36.5 33.3-29 2.8 2 7.9 11 13.9 25 2.6 6 4.9 11.1 5 11.3.1.1 1.3-.3 2.7-.9 3.3-1.5 7.3 0 11.3 4.2 2.5 2.6 2.9 3.9 2.9 8.4v5.4l8 5.5c4.4 3.1 8.3 5.6 8.8 5.6.4 0 3.8-2.4 7.5-5.4 17-13.7 41.8-27.2 62.4-34 12-4 31.4-8.2 42.6-9.2 3.9-.4 7.2-.9 7.2-1.2 0-.2.7-5 1.6-10.4l1.6-10-3.2-2.7c-3.2-2.7-4.8-7.3-4.2-12.3.3-2.7 3.8-7.2 6.1-7.9 1-.4 0-4.2-3.7-14.4-6.9-19.3-7.9-24.3-5.8-28.2 5.1-9.9 23.3-13.2 36.3-6.7z"/><path d="M494.8 317.4c-2.7 2-3.9 6.2-2.7 9.3 3.2 8.5 14.9 6.3 14.9-2.8 0-6.3-7.4-10.2-12.2-6.5zm14.7 36.4c-.3.3-.5 4.2-.5 8.7 0 6.9-.3 8.5-2 10-1.6 1.5-2 3.1-2 8.4v6.6l5.8 4.5 5.7 4.6.3 24.6c.2 24.3.2 24.7-2 26.7-4.6 4.4-4.7 3.7-5-21.5-.3-20.5-.5-23.8-1.9-24.7-.9-.6-2.4-.7-3.3-.4-1.4.6-1.6 3.3-1.6 24.7v24h-7v-23.9c0-15.8-.4-24.2-1.1-24.6-.5-.4-2.1-.4-3.5-.1l-2.4.6v24.5c0 23.1-.1 24.5-1.8 24.5-1.1 0-2.6-.8-3.5-1.8-1.5-1.6-1.7-5-1.7-26.6V398l6.5-4.8 6.5-4.7v-6c0-4.9-.4-6.2-2-7.3-1.8-1.1-2-2.3-2-10.2v-9h-3.3c-11.7 0-38.6 7.4-52.8 14.5-13.4 6.8-32.9 20.4-32.9 23.1 0 .6 2.3 3.2 5 5.7 3.8 3.4 5 5.2 5 7.4s1.4 4.3 5.9 8.7l6 5.9 6.3-.2c5.2-.1 7.4.4 12.6 2.8 14.8 7.1 25.4 25.1 21.9 37.4l-.8 2.8 5.8-3.9c7.3-4.9 12.4-6.9 21.1-8.2 17-2.7 35.3 5 45.7 19 20.8 28.3 6.8 69.7-26.4 78.1l-6.6 1.7v23.8c0 22.2.1 23.9 1.8 24.2 4.4.9 4.7-.7 4.7-25.4 0-25 .1-25.7 4.8-21.4 2.1 2 2.2 2.7 2.2 26.5v24.4l-6 4.7-6 4.7v6.6c0 5.4.4 7 2 8.4 1.7 1.4 2 2.9 2 10 0 4.6.2 8.6.5 8.9.8.8 14.5-1.1 24-3.3 9.9-2.3 22.9-7 32.1-11.7 7.1-3.6 22.2-13.6 27.9-18.6l4-3.5-5.2-5.3c-4-4.1-5.3-6.1-5.3-8.4 0-2.3-1.3-4.2-5.5-8.4l-5.6-5.5h-6.7c-8.5-.1-16.1-3.4-23.5-10.4-12.3-11.7-16-27.7-8.1-35.2 2.2-2.1 3.5-2.4 9.2-2.4 8.2.1 14.9 3.3 22.7 10.6 8.6 8.1 13.7 20.1 11.6 27.4-.8 3.1-.6 3.5 5.3 9.4 4.2 4.1 6.9 6.1 8.6 6.1 1.6 0 4.3 1.9 8.1 5.6l5.6 5.5 5.2-6.4c17.9-22.5 27.4-46.6 30.6-77.5l.7-6.2h-8.1c-7.4 0-8.4-.2-10.7-2.5-2.1-2.1-3.4-2.5-8.4-2.5-5.4 0-6.1.3-7.7 2.7-.9 1.6-3.2 4.7-5.1 7l-3.3 4.3h-23c-25.8 0-28.8-.7-28.9-6.3 0-1.6 1.8-1.7 23.4-1.7 21.9 0 23.4-.1 23.9-1.9.2-1 0-2.6-.5-3.5-.8-1.4-3.6-1.6-23.8-1.6h-23v-5h23c21.6 0 23-.1 24-1.9.5-1.1.7-2.7.4-3.5-.5-1.4-3.7-1.6-24-1.6-20.4 0-23.4-.2-23.4-1.5 0-.9 1.1-2.7 2.5-4.1l2.4-2.4 23.8.2 23.8.3 4.9 6.2 5 6.3h5.9c5.1 0 6.3-.4 8.3-2.5 2.1-2.3 3-2.5 10.9-2.5 10 0 9.4 1.4 6.5-15.5-4.3-24.9-14.7-48-31-68.4l-4.2-5.3-5.7 5.6c-3.8 3.8-6.5 5.6-8.2 5.6-1.7 0-4.2 1.8-8.1 5.7l-5.6 5.8.1 6.5c0 5-.5 7.8-2.6 12.3-5.5 12-18.9 22.2-30.8 23.3-18.4 1.7-19.6-21.5-2-37.8 8.3-7.7 13.8-10.2 22.8-10.3h7.3l5.5-5.5c4.2-4.2 5.5-6.1 5.5-8.4 0-2.3 1.3-4.3 5.3-8.4l5.2-5.4-3.5-2.9c-15.8-13.5-41.7-26-63.2-30.4-9-1.9-20.6-3.3-21.3-2.7zm-139.4 15.8c-1.2 1.5-2.1 3.9-2.1 5.4 0 3.2 3.1 7.5 5.8 8.2 2.9.8 8.1-1.8 9.3-4.6 3.7-8-7.6-15.8-13-9zM618 369c-2.2 2.2-2.7 7.8-1 11 1.2 2.3 5.9 3.9 8.5 3 3.2-1.2 5.8-4.8 5.8-8 0-6.7-8.7-10.6-13.3-6z"/><path d="M386 407.1c-17.5 21.9-27.9 47.3-31.5 76.6l-.7 5.3h8.5c7.1 0 8.7.3 10.2 2 1.5 1.6 3.1 2 8.9 2 6.8 0 7.3-.2 8.8-2.8.9-1.5 3.1-4.2 4.8-6l3.2-3.2h23.6c22.5 0 23.7.1 25.8 2.1l2.2 2.1 1.2-3.7c.7-2 3.1-6.5 5.4-10l4.3-6.3-3 1c-7.6 2.7-19.7-1.9-28.9-10.9-7.6-7.5-11.2-15.4-11.3-24.5v-6.7l-5.5-5.6c-3.7-3.8-6.2-5.5-7.9-5.5-1.7 0-4.4-1.8-8.2-5.6l-5.7-5.6-4.2 5.3zm103.3 62.7c-14 5-22.1 17.5-21.1 32.6.8 11.7 7.1 21.1 17.6 26.3 4.8 2.4 7 2.8 13.7 2.8 6.7 0 8.9-.4 13.7-2.8 6.5-3.2 12.1-9 15.2-15.6 1.6-3.5 2.1-6.5 2.1-13.1 0-9.8-2-15.2-8-21.8-7.8-8.7-22.2-12.3-33.2-8.4z"/><path d="M402 490c-.8 1.4-.8 2.6 0 4 1 1.9 2.1 2 23.4 2h22.4l.4-3.5c.2-2 .2-3.8-.1-4-.2-.3-10.5-.5-22.7-.5-21.3 0-22.4.1-23.4 2zm-83.4 4.1c-3.5 2.8-3.6 8-.1 11.4 4.8 4.9 12 2.3 13.1-4.7 1.2-7.2-7-11.4-13-6.7zm350.9.4c-5 4.9-1.5 13.5 5.5 13.5 4.1 0 8-3.9 8-8s-3.9-8-8-8c-1.9 0-4 .9-5.5 2.5zm-267.5 9c-.6.8-.9 2.3-.5 3.5.6 1.9 1.3 2 23.1 2H447v2.4c0 5.1-2.4 5.6-27.6 5.6h-23.2l-3.3-3.7c-1.8-2.1-4.1-5.2-5.2-7-1.8-3.1-2.2-3.3-7.8-3.3-4.9 0-6.2.4-8.3 2.5-2.3 2.3-3.3 2.5-10.7 2.5h-8.2l.7 6.2c3.2 28.6 16.6 60.4 33.8 80.2l3.3 3.8 6.2-6.6c4.8-5.1 6.9-6.6 9-6.6 2.2 0 4.3-1.5 8.7-5.9l5.9-6-.2-6.8c-.3-9.2 3.4-16.8 12.4-25.1 9.3-8.7 22-12.7 28.8-9 2.1 1.1 2.1 1.1.4-1.3-6.1-8.5-9.8-16.7-11.2-25.2l-.6-3.7h-23.3c-19.2 0-23.6.3-24.6 1.5zm62.3 36.2c.3 1 .8 2.8 1.2 4 .9 3.3-2.1 14.1-5.6 19.4-7.3 11.4-18.7 18.3-30.1 18.4h-6.7l-5.6 5.5c-4.1 4-5.5 6.2-5.5 8.3 0 2-1.4 4.4-5.2 8.4l-5.3 5.5 4 3.5c6.6 5.8 22.6 16 31.1 19.9 15.1 7 35.5 12.6 49.4 13.6l4.5.3.3-8.6c.2-7.1.6-9 2.2-10.4 1.6-1.4 2-3.1 2-8 0-6.2 0-6.2-4.2-9-9.5-6.1-8.8-3.6-8.8-31.6 0-24.5 0-24.8 2.2-26.3 4.7-3.3 4.7-3.1 5 22.1l.3 23.8h6l.3-23.7.2-23.6-5.2-.7c-7.5-1-14.6-3.9-21.2-8.5-4.2-2.9-5.6-3.6-5.3-2.3zM373.4 617c-2.7 1-6.4 5.7-6.4 8.1 0 .9 1.2 3.1 2.6 4.8 4.5 5.3 12.3 3.3 14-3.6 1.3-5.2-5.2-11.1-10.2-9.3zm244.1 2.5c-3.2 3.1-3.2 7.4 0 10.9 4.7 5.1 13.8 1.7 13.8-5.2 0-7.3-8.7-10.9-13.8-5.7zM494.7 671c-3.3 2.6-4.1 6.3-2.3 9.9 1.7 3.2 3.4 4.1 7.5 4.1 6.8 0 9.9-9.7 4.5-13.9-3.3-2.6-6.4-2.7-9.7-.1z"/></svg>