<?xml version="1.0" standalone="no"?>
<!DOCTYPE svg PUBLIC "-//W3C//DTD SVG 20010904//EN"
 "http://www.w3.org/TR/2001/REC-SVG-20010904/DTD/svg10.dtd">
<svg version="1.0" xmlns="http://www.w3.org/2000/svg"
 width="1000.000000pt" height="1000.000000pt" viewBox="0 0 1000.000000 1000.000000"
 preserveAspectRatio="xMidYMid meet">
<metadata>
Created by potrace 1.11, written by Peter Selinger 2001-2013
</metadata>
<g transform="translate(0.000000,1000.000000) scale(0.100000,-0.100000)"
fill="#000000" stroke="none">
<path d="M1260 9975 c-387 -66 -727 -272 -958 -581 -134 -178 -223 -376 -275
-608 l-22 -101 0 -3680 c0 -3521 1 -3684 18 -3770 111 -547 488 -980 1001
-1150 136 -45 236 -65 391 -75 171 -12 6999 -12 7170 0 155 10 255 30 391 75
513 170 890 603 1001 1150 17 86 18 249 18 3770 l0 3680 -22 101 c-52 232
-141 430 -275 608 -216 289 -520 482 -898 573 -71 17 -254 18 -3770 19 -2977
2 -3710 0 -3770 -11z m3877 -1991 c42 -21 64 -39 78 -66 l19 -37 -22 -78 c-13
-43 -41 -127 -63 -186 -21 -60 -39 -112 -39 -117 0 -5 9 -12 20 -15 42 -13 65
-107 39 -158 -6 -12 -22 -32 -36 -43 l-26 -22 12 -83 c19 -129 19 -129 55
-129 49 0 211 -28 319 -55 263 -66 535 -201 754 -371 45 -35 84 -64 88 -64 4
0 44 25 89 56 l83 57 -5 47 c-4 44 -1 51 31 86 33 36 39 39 90 39 54 0 55 1
67 35 33 93 139 298 166 319 36 29 98 25 169 -9 122 -59 207 -225 157 -306
-21 -32 -124 -90 -277 -155 -44 -18 -81 -34 -83 -35 -1 -1 2 -13 8 -28 13 -36
-7 -83 -51 -120 -29 -25 -39 -28 -79 -23 l-45 5 -55 -80 c-30 -44 -57 -84 -58
-89 -2 -6 23 -44 56 -87 230 -298 366 -622 419 -1002 l18 -125 80 -12 c44 -7
92 -14 108 -17 18 -4 27 -1 27 8 0 25 48 58 93 63 51 6 96 -13 116 -50 l13
-24 116 44 c64 24 149 52 190 63 67 18 77 18 103 5 34 -18 82 -98 105 -175 13
-45 14 -66 6 -113 -15 -80 -54 -145 -100 -164 -35 -14 -41 -13 -177 31 -77 26
-161 55 -187 66 -47 19 -47 19 -53 -1 -9 -29 -63 -59 -105 -59 -41 0 -96 30
-105 59 -6 21 1 21 -150 -3 l-69 -12 -17 -120 c-53 -374 -191 -707 -417 -1002
l-63 -84 53 -80 c29 -45 56 -85 59 -90 3 -5 17 -4 33 2 33 12 80 -5 116 -45
20 -21 25 -37 25 -79 l0 -52 100 -42 c138 -59 235 -113 258 -144 42 -56 13
-162 -66 -242 -57 -56 -115 -86 -181 -93 -42 -4 -56 -1 -79 17 -29 23 -92 141
-147 275 -18 44 -34 81 -35 83 -1 1 -14 -3 -28 -9 -33 -15 -73 0 -113 42 -25
26 -29 39 -29 84 l0 54 -80 55 c-44 31 -83 56 -88 56 -4 0 -38 -24 -75 -54
-170 -137 -418 -272 -624 -340 -120 -40 -314 -82 -425 -92 -40 -4 -73 -9 -73
-12 0 -2 -7 -50 -16 -104 l-16 -100 32 -27 c32 -27 48 -73 42 -123 -3 -27 -38
-72 -61 -79 -10 -4 0 -42 37 -144 69 -194 79 -242 58 -283 -35 -68 -161 -114
-268 -98 -72 11 -150 55 -173 98 l-19 37 22 78 c13 43 41 127 63 186 21 60 39
112 39 117 0 5 -9 12 -20 15 -42 13 -65 107 -39 158 6 12 22 32 36 43 l26 22
-12 83 c-19 129 -19 129 -55 129 -49 0 -211 28 -319 55 -263 66 -535 201 -754
371 -45 35 -84 64 -88 64 -4 0 -44 -25 -89 -56 l-83 -57 5 -47 c4 -44 1 -51
-31 -86 -33 -36 -39 -39 -90 -39 -54 0 -55 -1 -67 -35 -7 -19 -40 -94 -74
-165 -90 -188 -129 -214 -243 -161 -121 57 -218 220 -182 308 14 35 96 84 254
154 61 26 111 49 113 50 1 1 -2 13 -8 28 -13 36 7 83 51 120 29 25 39 28 79
23 l45 -5 50 75 c28 42 51 79 53 84 2 4 -27 46 -63 93 -223 289 -361 620 -411
986 -10 69 -19 127 -21 129 -2 3 -50 12 -108 21 -81 13 -105 14 -105 4 0 -7
-14 -24 -31 -38 -53 -45 -165 -25 -183 32 -6 18 -14 16 -134 -29 -70 -26 -157
-55 -194 -65 -65 -15 -69 -15 -100 3 -22 12 -43 39 -63 78 -26 53 -30 70 -30
146 0 75 4 92 30 144 42 81 75 98 155 79 33 -7 119 -36 192 -62 l133 -49 17
26 c22 33 55 50 98 51 42 0 96 -30 105 -59 7 -23 -4 -23 150 2 l69 12 18 124
c51 364 183 684 403 981 l76 102 -17 26 c-9 15 -37 55 -61 89 -41 59 -45 62
-69 51 -22 -10 -33 -8 -69 11 -53 28 -80 77 -72 128 6 33 4 35 -41 55 -116 50
-259 121 -288 143 -25 19 -34 35 -40 70 -22 149 226 365 333 290 28 -20 79
-110 139 -250 26 -60 49 -111 50 -113 1 -1 13 3 27 9 33 15 73 0 113 -42 25
-26 29 -39 29 -84 l0 -54 80 -55 c44 -31 83 -56 88 -56 4 0 38 24 75 54 170
137 418 272 624 340 120 40 314 82 426 92 39 4 72 9 72 12 0 2 7 50 16 104
l16 100 -32 27 c-32 27 -48 73 -42 123 3 27 38 72 61 79 10 4 0 42 -37 144
-69 193 -79 243 -58 282 51 99 233 132 363 67z"/>
<path d="M4948 6826 c-27 -20 -39 -62 -27 -93 32 -85 149 -63 149 28 0 63 -74
102 -122 65z"/>
<path d="M5095 6462 c-3 -3 -5 -42 -5 -87 0 -69 -3 -85 -20 -100 -16 -15 -20
-31 -20 -84 l0 -66 58 -45 57 -46 3 -246 c2 -243 2 -247 -20 -267 -46 -44 -47
-37 -50 215 -3 205 -5 238 -19 247 -9 6 -24 7 -33 4 -14 -6 -16 -33 -16 -247
l0 -240 -35 0 -35 0 0 239 c0 158 -4 242 -11 246 -5 4 -21 4 -35 1 l-24 -6 0
-245 c0 -231 -1 -245 -18 -245 -11 0 -26 8 -35 18 -15 16 -17 50 -17 266 l0
246 65 48 65 47 0 60 c0 49 -4 62 -20 73 -18 11 -20 23 -20 102 l0 90 -33 0
c-117 0 -386 -74 -528 -145 -134 -68 -329 -204 -329 -231 0 -6 23 -32 50 -57
38 -34 50 -52 50 -74 0 -22 14 -43 59 -87 l60 -59 63 2 c52 1 74 -4 126 -28
148 -71 254 -251 219 -374 l-8 -28 58 39 c73 49 124 69 211 82 170 27 353 -50
457 -190 208 -283 68 -697 -264 -781 l-66 -17 0 -238 c0 -222 1 -239 18 -242
44 -9 47 7 47 254 0 250 1 257 48 214 21 -20 22 -27 22 -265 l0 -244 -60 -47
-60 -47 0 -66 c0 -54 4 -70 20 -84 17 -14 20 -29 20 -100 0 -46 2 -86 5 -89 8
-8 145 11 240 33 99 23 229 70 321 117 71 36 222 136 279 186 l40 35 -52 53
c-40 41 -53 61 -53 84 0 23 -13 42 -55 84 l-56 55 -67 0 c-85 1 -161 34 -235
104 -123 117 -160 277 -81 352 22 21 35 24 92 24 82 -1 149 -33 227 -106 86
-81 137 -201 116 -274 -8 -31 -6 -35 53 -94 42 -41 69 -61 86 -61 16 0 43 -19
81 -56 l56 -55 52 64 c179 225 274 466 306 775 l7 62 -81 0 c-74 0 -84 2 -107
25 -21 21 -34 25 -84 25 -54 0 -61 -3 -77 -27 -9 -16 -32 -47 -51 -70 l-33
-43 -230 0 c-258 0 -288 7 -289 63 0 16 18 17 234 17 219 0 234 1 239 19 2 10
0 26 -5 35 -8 14 -36 16 -238 16 l-230 0 0 25 0 25 230 0 c216 0 230 1 240 19
5 11 7 27 4 35 -5 14 -37 16 -240 16 -204 0 -234 2 -234 15 0 9 11 27 25 41
l24 24 238 -2 238 -3 49 -62 50 -63 59 0 c51 0 63 4 83 25 21 23 30 25 109 25
100 0 94 -14 65 155 -43 249 -147 480 -310 684 l-42 53 -57 -56 c-38 -38 -65
-56 -82 -56 -17 0 -42 -18 -81 -57 l-56 -58 1 -65 c0 -50 -5 -78 -26 -123 -55
-120 -189 -222 -308 -233 -184 -17 -196 215 -20 378 83 77 138 102 228 103
l73 0 55 55 c42 42 55 61 55 84 0 23 13 43 53 84 l52 54 -35 29 c-158 135
-417 260 -632 304 -90 19 -206 33 -213 27z"/>
<path d="M3701 6304 c-12 -15 -21 -39 -21 -54 0 -32 31 -75 58 -82 29 -8 81
18 93 46 37 80 -76 158 -130 90z"/>
<path d="M6180 6310 c-22 -22 -27 -78 -10 -110 12 -23 59 -39 85 -30 32 12 58
48 58 80 0 67 -87 106 -133 60z"/>
<path d="M3860 5929 c-175 -219 -279 -473 -315 -766 l-7 -53 85 0 c71 0 87 -3
102 -20 15 -16 31 -20 89 -20 68 0 73 2 88 28 9 15 31 42 48 60 l32 32 236 0
c225 0 237 -1 258 -21 l22 -21 12 37 c7 20 31 65 54 100 l43 63 -30 -10 c-76
-27 -197 19 -289 109 -76 75 -112 154 -113 245 l0 67 -55 56 c-37 38 -62 55
-79 55 -17 0 -44 18 -82 56 l-57 56 -42 -53z"/>
<path d="M4893 5302 c-140 -50 -221 -175 -211 -326 8 -117 71 -211 176 -263
48 -24 70 -28 137 -28 67 0 89 4 137 28 65 32 121 90 152 156 16 35 21 65 21
131 0 98 -20 152 -80 218 -78 87 -222 123 -332 84z"/>
<path d="M4020 5100 c-8 -14 -8 -26 0 -40 10 -19 21 -20 234 -20 l224 0 4 35
c2 20 2 38 -1 40 -2 3 -105 5 -227 5 -213 0 -224 -1 -234 -20z"/>
<path d="M3186 5059 c-35 -28 -36 -80 -1 -114 48 -49 120 -23 131 47 12 72
-70 114 -130 67z"/>
<path d="M6695 5055 c-50 -49 -15 -135 55 -135 41 0 80 39 80 80 0 41 -39 80
-80 80 -19 0 -40 -9 -55 -25z"/>
<path d="M4020 4965 c-6 -8 -9 -23 -5 -35 6 -19 13 -20 231 -20 l224 0 0 -24
c0 -51 -24 -56 -276 -56 l-232 0 -33 37 c-18 21 -41 52 -52 70 -18 31 -22 33
-78 33 -49 0 -62 -4 -83 -25 -23 -23 -33 -25 -107 -25 l-82 0 7 -62 c32 -286
166 -604 338 -802 l33 -38 62 66 c48 51 69 66 90 66 22 0 43 15 87 59 l59 60
-2 68 c-3 92 34 168 124 251 93 87 220 127 288 90 21 -11 21 -11 4 13 -61 85
-98 167 -112 252 l-6 37 -233 0 c-192 0 -236 -3 -246 -15z"/>
<path d="M4643 4603 c3 -10 8 -28 12 -40 9 -33 -21 -141 -56 -194 -73 -114
-187 -183 -301 -184 l-67 0 -56 -55 c-41 -40 -55 -62 -55 -83 0 -20 -14 -44
-52 -84 l-53 -55 40 -35 c66 -58 226 -160 311 -199 151 -70 355 -126 494 -136
l45 -3 3 86 c2 71 6 90 22 104 16 14 20 31 20 80 0 62 0 62 -42 90 -95 61 -88
36 -88 316 0 245 0 248 22 263 47 33 47 31 50 -221 l3 -238 30 0 30 0 3 237 2
236 -52 7 c-75 10 -146 39 -212 85 -42 29 -56 36 -53 23z"/>
<path d="M3734 3830 c-27 -10 -64 -57 -64 -81 0 -9 12 -31 26 -48 45 -53 123
-33 140 36 13 52 -52 111 -102 93z"/>
<path d="M6175 3805 c-32 -31 -32 -74 0 -109 47 -51 138 -17 138 52 0 73 -87
109 -138 57z"/>
<path d="M4947 3290 c-33 -26 -41 -63 -23 -99 17 -32 34 -41 75 -41 68 0 99
97 45 139 -33 26 -64 27 -97 1z"/>
</g>
</svg>
